# xmcd CD database file
#
# Track frame offsets:
#	150
#	11965
#	25483
#	38462
#	48612
#	60071
#	70499
#	82111
#	94040
#	106471
#	119807
#	131497
#	144813
#	157618
#	168750
#	178073
#	190686
#	201663
#	214017
#	223926
#	234760
#	246266
#	257543
#	271118
#	282643
#	294102
#	307994
#	319559
#	330459
#	343495
#
# Disc length: 4732 seconds
#
# Revision: 1
# Processed by: cddbd v1.5.2PL0 Copyright (c) Steve Scherf et al.
# Submitted via: CDex 1.51
#
DISCID=b6127a1e
DTITLE=Various Artist - Classic Country 1950-1959
DYEAR=1900
DGENRE=Country
TTITLE0=Patsy cline - Walkin' After Midnight
TTITLE1=Bobby Helms - My Special Angel
TTITLE2=The Browns - The Three Bells
TTITLE3=Conway Twitty - It's Only Make Believe
TTITLE4=Sonny James - Young Love
TTITLE5=Jimmie Rogers - Honeycomb
TTITLE6=Johnny Horton - The Battle of New Orleans
TTITLE7=Tennessee Ernie Ford - Sixteen Tons
TTITLE8=Johnny Cash - I Walk the Line
TTITLE9=Jerry Lee Lewis - You Win Again
TTITLE10=Ray Price - Crazy Arms
TTITLE11=Hank Williams - Hey, Good Lookin'
TTITLE12=Hank Snow - I'm Movin On
TTITLE13=Marty Robbins - Singing the Blues
TTITLE14=Elvis Presley - Don't Be Cruel
TTITLE15=George Jones - White Lightning
TTITLE16=Webb Pierce - There Stands the Glass
TTITLE17=Hank Williams - Your Cheatin' Heart
TTITLE18=Elvis Presley - Heartbreak Hotel
TTITLE19=The Everly Brothers - Bye Bye Love
TTITLE20=Don Gibson - Oh Lonesome Me
TTITLE21=Stonewall Jackson - Waterloo
TTITLE22=Ray Price - Heartaches By the Number
TTITLE23=Kitty Wells - It Wasn't God Who Made Honky Tonk Angels
TTITLE24=Marty Robbins - A White Sport Coat (And a Pink Carnation)
TTITLE25=Patti Page - Tennessee Waltz
TTITLE26=Eddy Arnold - Cattle Call
TTITLE27=Ferlin Husky - Gone
TTITLE28=Jim Reeves - Four Walls
TTITLE29=Hank Locklin - Send Me the Pillow You Dream On
EXTD=
EXTT0=
EXTT1=
EXTT2=
EXTT3=
EXTT4=
EXTT5=
EXTT6=
EXTT7=
EXTT8=
EXTT9=
EXTT10=
EXTT11=
EXTT12=
EXTT13=
EXTT14=
EXTT15=
EXTT16=
EXTT17=
EXTT18=
EXTT19=
EXTT20=
EXTT21=
EXTT22=
EXTT23=
EXTT24=
EXTT25=
EXTT26=
EXTT27=
EXTT28=
EXTT29=
PLAYORDER=
